<?xml version="1.0" standalone="no"?>
<!DOCTYPE svg PUBLIC "-//W3C//DTD SVG 20010904//EN"
  "http://www.w3.org/TR/2001/REC-SVG-20010904/DTD/svg10.dtd">
<svg version="1.0" xmlns="http://www.w3.org/2000/svg"
     width="1000.000000pt" height="1000.000000pt" viewBox="0 0 1000.000000 1000.000000"
     preserveAspectRatio="xMidYMid meet">
  <metadata>
    Created by potrace 1.11, written by Peter Selinger 2001-2013
  </metadata>
  <g transform="translate(0.000000,1000.000000) scale(0.100000,-0.100000)"
     fill="#000000" stroke="none">
    <path d="M2769 9546 c-2 -2 -47 -7 -99 -11 -52 -3 -97 -8 -100 -10 -3 -1 -27
-5 -55 -9 -390 -46 -766 -236 -966 -486 -116 -145 -208 -335 -244 -505 -40
-187 -43 -242 -45 -1020 -1 -418 -3 -776 -5 -795 -24 -270 -111 -480 -266
-637 -185 -187 -459 -291 -814 -308 -50 -2 -93 -4 -97 -5 -5 0 -8 -335 -8
-745 0 -410 3 -745 8 -746 4 0 36 -2 72 -4 69 -4 175 -14 200 -19 8 -1 38 -7
65 -11 28 -5 52 -10 55 -10 3 -1 19 -5 35 -9 447 -116 711 -438 750 -916 2
-30 5 -388 6 -795 0 -407 5 -771 9 -810 19 -150 20 -159 44 -255 2 -8 7 -28
12 -45 12 -52 73 -197 110 -263 151 -270 411 -468 755 -576 63 -20 125 -38
139 -41 117 -24 256 -46 324 -52 107 -10 4619 -10 4719 0 120 12 303 44 382
68 235 69 367 131 520 244 67 49 215 191 215 206 0 4 6 14 13 21 71 72 197
347 221 483 3 17 8 39 10 50 2 11 7 45 11 75 4 30 10 66 12 80 3 14 6 383 8
820 3 864 4 892 61 1072 109 345 394 584 779 652 118 21 194 29 277 30 38 1
68 3 69 6 1 3 2 339 3 748 1 488 -2 742 -9 743 -5 0 -46 2 -90 3 -101 4 -185
15 -310 40 -64 13 -193 60 -266 96 -175 87 -302 210 -394 382 -33 62 -81 202
-90 265 -2 11 -6 29 -9 40 -15 49 -19 238 -21 938 -2 418 -6 775 -9 793 -3 18
-8 52 -11 75 -48 328 -184 586 -420 793 -48 42 -183 128 -265 169 -73 37 -316
122 -369 129 -14 2 -48 9 -76 15 -50 10 -89 17 -155 26 -19 3 -55 8 -80 12
-46 7 -4603 16 -4611 9z"/>
  </g>
</svg>
